<svg xmlns="http://www.w3.org/2000/svg" width="30.271" height="28.76" viewBox="0 0 30.271 28.76">
  <g id="Layer_2" data-name="Layer 2" transform="translate(0.193 -0.998)">
    <g id="Layer_1" data-name="Layer 1" transform="translate(-0.193 0.998)">
      <path id="Path_1030" data-name="Path 1030" d="M30.278,17.218c-.134.112-.107.283-.151.426a3.528,3.528,0,0,1-6.9-1.261A3.484,3.484,0,0,1,25.964,13.2c.225-.049.288-.131.289-.362a4.79,4.79,0,0,0-.468-2.43,3.216,3.216,0,0,0-3.193-1.741A3.445,3.445,0,0,0,19.82,11.2a4.267,4.267,0,0,0-.133,1.108c0,3.089-.009,6.178.006,9.266a7.394,7.394,0,0,1-1.019,4.087,6.078,6.078,0,0,1-10.583.01,7.235,7.235,0,0,1-1.015-4.144c.008-.261-.033-.379-.339-.435A1.367,1.367,0,0,1,5.682,20.02a6.438,6.438,0,0,1-.113-1.876c0-.217-.069-.288-.274-.353A7.2,7.2,0,0,1,.225,12.741a8.867,8.867,0,0,1-.216-2.519c0-.112.028-.168.147-.152a.414.414,0,0,0,.087,0c.252-.018.6.113.731-.053s.041-.487.042-.741c0-1.85.018-3.7-.006-5.548A2.563,2.563,0,0,1,2.965,1.092a.321.321,0,0,0,.229-.2A1.5,1.5,0,0,1,4.98.059a1.525,1.525,0,0,1,1.1,1.561,1.5,1.5,0,0,1-1.419,1.4,1.389,1.389,0,0,1-1.381-.728c-.131-.232-.236-.206-.413-.112a1.459,1.459,0,0,0-.832,1.331c-.013,2.125,0,4.25-.01,6.375,0,.168.065.191.207.188.364-.008.729.007,1.093-.007.184-.007.232.049.229.231A5.874,5.874,0,0,0,3.7,12.142,3.932,3.932,0,0,0,6.484,14.9a4.441,4.441,0,0,0,3.747-.476,3.854,3.854,0,0,0,1.845-2.905,9.058,9.058,0,0,0,.042-1.266c0-.138.032-.205.179-.182a.248.248,0,0,0,.059,0c.251-.019.6.113.73-.055s.041-.488.04-.742c-.007-1.869-.02-3.738-.024-5.607A1.545,1.545,0,0,0,12.22,2.16c-.158-.079-.232-.055-.322.1a1.481,1.481,0,0,1-1.693.7,1.5,1.5,0,1,1,1.75-2.1c.054.109.1.2.236.231a2.541,2.541,0,0,1,1.929,2.6c-.007,2.027.013,4.053.009,6.079,0,.236.045.326.3.308.229-.017.54-.109.675.043.113.129.031.43.039.654a7.082,7.082,0,0,1-5.2,6.979c-.286.083-.379.2-.367.5a6.433,6.433,0,0,1-.043,1.472,1.511,1.511,0,0,1-1.316,1.417c-.114.015-.136.075-.141.179a6.1,6.1,0,0,0,2.148,5.307,4.994,4.994,0,0,0,6.989-.657,6.146,6.146,0,0,0,1.46-4.128V12.31A4.5,4.5,0,0,1,20.789,8.3a4.091,4.091,0,0,1,5.774,1.451,5.331,5.331,0,0,1,.69,2.912c-.01.472,0,.453.439.586a3.478,3.478,0,0,1,2.522,2.767c.011.053-.015.122.061.15ZM7.684,17.113a6.235,6.235,0,0,0,1.587-.192A6.221,6.221,0,0,0,14.1,11.7c.065-.622.079-.608-.552-.63-.293-.009-.484.018-.444.386a1.572,1.572,0,0,1-.061.5,4.916,4.916,0,0,1-3.87,3.988A5.189,5.189,0,0,1,2.552,11.28c-.009-.175-.073-.209-.23-.2-.364.01-.728.012-1.092,0-.166-.006-.217.039-.207.211a5.707,5.707,0,0,0,.441,1.972A6.564,6.564,0,0,0,7.684,17.113Zm19.03,2.019a2.511,2.511,0,1,0,.065-5.022,2.511,2.511,0,1,0-.065,5.022ZM7.608,18.1v.03c-.295-.013-.589-.024-.883-.04-.079,0-.158-.026-.158.1a6.9,6.9,0,0,0,.079,1.551.494.494,0,0,0,.531.412c.245,0,.491,0,.736,0,.381,0,.521-.124.609-.5a7.342,7.342,0,0,0,.062-1.288c.013-.209-.013-.319-.274-.276A4.981,4.981,0,0,1,7.608,18.1ZM5.045,1.512a.5.5,0,0,0-.505-.5.519.519,0,0,0-.49.5.5.5,0,0,0,.512.5.484.484,0,0,0,.484-.489Zm5.569-.5a.5.5,0,0,0-.5.477A.485.485,0,0,0,10.6,2a.5.5,0,0,0,.508-.472.517.517,0,0,0-.49-.521Z" transform="translate(-0.007 0.002)" fill="#fff"/>
      <path id="Path_1031" data-name="Path 1031" d="M321.639,194.963a1.47,1.47,0,0,1-1.479-1.462,1.488,1.488,0,0,1,1.476-1.5,1.507,1.507,0,0,1,1.489,1.5A1.491,1.491,0,0,1,321.639,194.963Zm.491-1.48a.507.507,0,0,0-.508-.488.49.49,0,0,0-.469.491.478.478,0,0,0,.5.484A.5.5,0,0,0,322.13,193.482Z" transform="translate(-294.832 -176.858)" fill="#fff"/>
    </g>
  </g>
</svg>
