<svg id="Notification" xmlns="http://www.w3.org/2000/svg" width="17" height="20" viewBox="0 0 17 20">
  <path id="Notification-2" data-name="Notification" d="M8.045.025a3.493,3.493,0,0,0-2.33,1.307.7.7,0,0,0,.109.98A.683.683,0,0,0,6.792,2.2a2.115,2.115,0,0,1,1.414-.79,2.14,2.14,0,0,1,1.577.445,1.911,1.911,0,0,1,.355.347.685.685,0,0,0,.969.106.7.7,0,0,0,.105-.981,3.29,3.29,0,0,0-.6-.583A3.492,3.492,0,0,0,8.045.025ZM4.013,4.154A4.9,4.9,0,0,0,.927,5.678,4.06,4.06,0,0,0,0,8.338v.238A4.1,4.1,0,0,0,.67,10.62l.067.086a3.858,3.858,0,0,1,.929,1.821l-.015-.061,0,.535.012.6c.009.262.023.5.042.723a5.981,5.981,0,0,0,2.228,4.054A7.13,7.13,0,0,0,8.465,20h.072a7.138,7.138,0,0,0,4.53-1.626A6.022,6.022,0,0,0,15.3,14.315c.017-.2.025-.379.028-.647v-.673c0-.11,0-.208,0-.308l.009-.2.045-.187a3.9,3.9,0,0,1,.726-1.431l.15-.177.062-.079A4.042,4.042,0,0,0,17,8.541v-.4a4.063,4.063,0,0,0-.966-2.5,4.786,4.786,0,0,0-3.046-1.487,41.47,41.47,0,0,0-8.974,0ZM1.787,9.8h0L1.71,9.671A2.684,2.684,0,0,1,1.4,8.732L1.38,8.541V8.323a2.657,2.657,0,0,1,.575-1.715,3.493,3.493,0,0,1,2.2-1.066,40.313,40.313,0,0,1,8.7,0,3.434,3.434,0,0,1,2.157,1.031,2.666,2.666,0,0,1,.613,1.774V8.51a2.583,2.583,0,0,1-.435,1.323l.015-.025-.138.162a5.3,5.3,0,0,0-1.013,2l-.065.276-.013.093c-.011.147-.016.266-.019.4l0,.9c0,.228-.008.382-.022.547a5.31,5.31,0,0,1-5.395,4.418H8.465A5.291,5.291,0,0,1,3.08,14.193c-.011-.122-.02-.256-.029-.422L3.036,13.3l-.007-.919-.014-.142a5.26,5.26,0,0,0-1.22-2.434h0Z" transform="translate(17 20) rotate(180)" fill="#fff"/>
</svg>
