<svg id="Search" xmlns="http://www.w3.org/2000/svg" width="20" height="20" viewBox="0 0 20 20">
  <path id="Search-2" data-name="Search" d="M18.82.141l-.083.07L15.61,3.261a9.7,9.7,0,0,0-6-2.06A9.518,9.518,0,0,0,0,10.6,9.518,9.518,0,0,0,9.611,20a9.518,9.518,0,0,0,9.612-9.4,9.25,9.25,0,0,0-2.531-6.349l3.091-3.014a.713.713,0,0,0,0-1.024A.753.753,0,0,0,18.82.141ZM1.48,10.6A8.052,8.052,0,0,1,9.611,2.649,8.052,8.052,0,0,1,17.743,10.6a8.052,8.052,0,0,1-8.131,7.952A8.052,8.052,0,0,1,1.48,10.6Z" transform="translate(20 20) rotate(180)" fill="#fff"/>
</svg>
