<svg xmlns="http://www.w3.org/2000/svg" width="13.928" height="13.956" viewBox="0 0 13.928 13.956">
  <g id="Layer_2" data-name="Layer 2" transform="translate(0 0.001)">
    <g id="Layer_1" data-name="Layer 1" transform="translate(0 -0.001)">
      <path id="Path_1032" data-name="Path 1032" d="M7.481,13.955H6.393c-.014-.044-.052-.026-.08-.029a6.37,6.37,0,0,1-1.778-.411A6.9,6.9,0,0,1,.072,7.98,1.971,1.971,0,0,0,0,7.535V6.447c.036-.012.026-.043.028-.068a5.991,5.991,0,0,1,.118-.805A6.755,6.755,0,0,1,2.72,1.483a6.646,6.646,0,0,1,6.669-1A6.755,6.755,0,0,1,13.856,6a2.8,2.8,0,0,0,.072.473V7.535c-.029.008-.026.032-.027.054a6.181,6.181,0,0,1-.115.806,6.986,6.986,0,0,1-6.009,5.512A.648.648,0,0,0,7.481,13.955ZM6.962,1.108A5.882,5.882,0,1,0,12.847,6.99,5.888,5.888,0,0,0,6.962,1.108Z" transform="translate(0 0.001)" fill="#2fa09c"/>
      <path id="Path_1033" data-name="Path 1033" d="M188.831,97.949c0-.53,0-1.06,0-1.591a.523.523,0,0,1,.3-.5.513.513,0,0,1,.553.036.565.565,0,0,1,.235.507c0,.925,0,1.849,0,2.773a.231.231,0,0,0,.108.21c.6.445,1.2.9,1.794,1.343a.54.54,0,1,1-.614.886c-.377-.274-.748-.558-1.12-.838-.326-.244-.649-.492-.979-.732a.624.624,0,0,1-.27-.546C188.833,98.982,188.831,98.466,188.831,97.949Z" transform="translate(-182.408 -92.538)" fill="#2fa09c"/>
    </g>
  </g>
</svg>
